<?xml version="1.0" encoding="UTF-8" standalone="no"?>
<svg
   xmlns:dc="http://purl.org/dc/elements/1.1/"
   xmlns:cc="http://creativecommons.org/ns#"
   xmlns:rdf="http://www.w3.org/1999/02/22-rdf-syntax-ns#"
   xmlns:svg="http://www.w3.org/2000/svg"
   xmlns="http://www.w3.org/2000/svg"
   xmlns:sodipodi="http://sodipodi.sourceforge.net/DTD/sodipodi-0.dtd"
   xmlns:inkscape="http://www.inkscape.org/namespaces/inkscape"
   version="1.1"
   viewBox="0 0 23.205748 22.326178"
   xml:space="preserve"
   id="svg3745"
   sodipodi:docname="new_article_icon.svg"
   width="23.205748"
   height="22.326178"
   inkscape:version="0.92.4 (5da689c313, 2019-01-14)"><metadata
     id="metadata3751"><rdf:RDF><cc:Work
         rdf:about=""><dc:format>image/svg+xml</dc:format><dc:type
           rdf:resource="http://purl.org/dc/dcmitype/StillImage" /><dc:title></dc:title></cc:Work></rdf:RDF></metadata><defs
     id="defs3749" /><sodipodi:namedview
     pagecolor="#ffffff"
     bordercolor="#666666"
     borderopacity="1"
     objecttolerance="10"
     gridtolerance="10"
     guidetolerance="10"
     inkscape:pageopacity="0"
     inkscape:pageshadow="2"
     inkscape:window-width="1440"
     inkscape:window-height="897"
     id="namedview3747"
     showgrid="false"
     fit-margin-top="0"
     fit-margin-left="0"
     fit-margin-right="0"
     fit-margin-bottom="0"
     inkscape:zoom="10.724453"
     inkscape:cx="27.570065"
     inkscape:cy="16.301271"
     inkscape:window-x="-8"
     inkscape:window-y="-8"
     inkscape:window-maximized="1"
     inkscape:current-layer="svg3745" /><g
     id="Padding__x26__Artboard"
     transform="translate(-12.39713,-12.836912)" /><g
     id="Icons"
     transform="translate(-12.39713,-12.836912)"><g
       id="g3742"><path
         d="m 12.39713,17.60254 v 17.21094 c 0,0.19336 0.15674,0.34961 0.3501,0.34961 h 17.21045 c 0.19336,0 0.3501,-0.15625 0.3501,-0.34961 V 23.64355 c 0,-0.19336 -0.15674,-0.34961 -0.3501,-0.34961 -0.19336,0 -0.3501,0.15625 -0.3501,0.34961 V 34.46386 H 13.09732 V 17.95215 h 12.5542 c 0.19336,0 0.3501,-0.15625 0.3501,-0.34961 0,-0.19336 -0.15674,-0.34961 -0.3501,-0.34961 h -12.9043 c -0.19335,0 -0.35009,0.15625 -0.35009,0.34961 z"
         style="fill:#303030"
         id="path3734"
         inkscape:connector-curvature="0" /><g
         id="g3740"><path
           d="m 32.10873,15.41229 c 0,0 -0.14795,-0.34955 -0.06842,-0.92078 L 17.40836,29.11328 c -0.02783,0.02734 -0.05078,0.05957 -0.06787,0.0957 l -1.31152,2.72852 c -0.06445,0.13379 -0.03711,0.29492 0.06885,0.39941 0.06689,0.06738 0.15625,0.10156 0.24658,0.10156 0.05225,0 0.10498,-0.01172 0.15381,-0.03516 l 2.73682,-1.33789 c 0.03467,-0.0166 0.06641,-0.03906 0.09326,-0.06641 l 14.578,-14.55249 c -0.24464,0.03935 -0.5766,0.05001 -0.91028,-0.07996 -0.47176,-0.17939 -0.74763,-0.50712 -0.88728,-0.95427 z"
           style="fill:#303030"
           id="path3736"
           inkscape:connector-curvature="0" /><path
           d="m 35.39957,13.79101 -0.75928,-0.75 c -0.17139,-0.1709 -0.4248,-0.2373 -0.69189,-0.18848 -0.22314,0.04297 -0.44531,0.16602 -0.625,0.34668 l -0.60694,0.61621 c -0.05167,0.26169 -0.08464,0.6426 -0.06287,0.97123 0.07842,0.62365 0.34144,0.90383 0.89735,1.0256 0,0 0.35065,0.08685 0.95203,0.03827 l 0.73157,-0.74018 c 0.17969,-0.17969 0.30371,-0.40039 0.34912,-0.62109 0.05566,-0.27148 -0.01075,-0.52441 -0.18409,-0.69824 z"
           style="fill:#303030"
           id="path3738"
           inkscape:connector-curvature="0" /></g></g></g></svg>