<?xml version="1.0" encoding="UTF-8" standalone="no"?>
<!-- Created with Inkscape (http://www.inkscape.org/) -->

<svg
   xmlns:dc="http://purl.org/dc/elements/1.1/"
   xmlns:cc="http://creativecommons.org/ns#"
   xmlns:rdf="http://www.w3.org/1999/02/22-rdf-syntax-ns#"
   xmlns:svg="http://www.w3.org/2000/svg"
   xmlns="http://www.w3.org/2000/svg"
   xmlns:sodipodi="http://sodipodi.sourceforge.net/DTD/sodipodi-0.dtd"
   xmlns:inkscape="http://www.inkscape.org/namespaces/inkscape"
   width="169.78766mm"
   height="147.41216mm"
   viewBox="0 0 169.78766 147.41216"
   version="1.1"
   id="svg56"
   inkscape:version="0.92.3 (2405546, 2018-03-11)"
   sodipodi:docname="thumbs_up_icon.svg">
  <defs
     id="defs50" />
  <sodipodi:namedview
     id="base"
     pagecolor="#ffffff"
     bordercolor="#666666"
     borderopacity="1.0"
     inkscape:pageopacity="0.0"
     inkscape:pageshadow="2"
     inkscape:zoom="0.35"
     inkscape:cx="323.71573"
     inkscape:cy="284.28844"
     inkscape:document-units="mm"
     inkscape:current-layer="layer1"
     showgrid="false"
     fit-margin-top="0"
     fit-margin-left="0"
     fit-margin-right="0"
     fit-margin-bottom="0"
     inkscape:window-width="3240"
     inkscape:window-height="2019"
     inkscape:window-x="-14"
     inkscape:window-y="-14"
     inkscape:window-maximized="1" />
  <metadata
     id="metadata53">
    <rdf:RDF>
      <cc:Work
         rdf:about="">
        <dc:format>image/svg+xml</dc:format>
        <dc:type
           rdf:resource="http://purl.org/dc/dcmitype/StillImage" />
        <dc:title></dc:title>
      </cc:Work>
    </rdf:RDF>
  </metadata>
  <g
     inkscape:label="Layer 1"
     inkscape:groupmode="layer"
     id="layer1"
     transform="translate(-20.183546,-76.639159)">
    <g
       transform="matrix(0.26458333,0,0,0.26458333,-71.966286,-39.337995)"
       id="g33">
      <path
         style="stroke-width:0.1"
         inkscape:connector-curvature="0"
         id="path8"
         d="M 577.98,442.57 C 534.31,463.62 500,545.25 508.06,609.97 l 2.6,19.75 -53.55,1.04 c -47.05,0.78 -54.59,1.56 -65.25,6.24 -16.12,7.54 -28.59,18.98 -36.13,34.05 -8.06,15.6 -9.1,46.53 -2.08,59.53 4.16,7.8 4.16,8.84 -0.52,21.58 -6.24,16.11 -6.5,34.05 -0.52,49.65 4.42,10.92 4.42,12.22 -0.26,25.99 -5.72,16.64 -4.94,38.47 2.08,51.73 3.9,7.8 3.9,9.36 0.26,20.54 -9.62,27.81 -2.08,57.71 19.24,76.68 21.84,20.02 7.02,18.72 227.45,18.72 197.56,0 197.56,0 207.96,-5.72 13.52,-7.28 23.4,-17.68 28.85,-30.67 3.9,-9.36 4.42,-24.44 4.42,-150.25 0,-134.91 0,-140.11 -4.94,-146.87 -11.18,-15.34 -42.89,-24.44 -94.88,-27.81 -48.09,-3.12 -44.71,-1.56 -52.51,-21.58 -12.74,-32.23 -15.08,-46.53 -14.3,-85.52 0.78,-31.97 0.26,-37.17 -4.68,-47.83 -6.5,-13.78 -20.8,-28.59 -34.31,-35.09 -14.29,-7.02 -45.75,-7.8 -59.01,-1.56 z m 38.48,37.95 c 17.68,7.28 18.72,10.66 18.98,55.89 0,36.39 0.78,42.89 7.28,63.69 8.84,29.11 22.35,58.49 29.89,65.25 5.46,4.68 10.92,5.46 65.25,6.76 32.49,0.78 60.31,2.34 62.13,3.38 2.08,1.3 2.86,37.95 2.86,134.39 v 132.57 l -6.5,6.24 -6.24,6.5 H 600.6 411.1 l -7.28,-5.72 c -9.1,-7.28 -14.56,-20.28 -12.74,-30.41 1.04,-4.42 6.24,-13.26 11.96,-19.75 l 10.4,-11.96 -11.96,-12.75 c -9.62,-10.4 -11.96,-14.56 -11.96,-22.1 0,-11.44 4.68,-20.8 15.34,-30.94 l 8.06,-7.54 -11.7,-12.48 c -10.4,-11.18 -11.7,-13.78 -11.7,-24.44 0,-10.66 1.3,-13.26 12.22,-25.21 l 12.48,-13 -9.36,-8.32 c -15.86,-13.78 -19.5,-27.55 -11.44,-43.15 7.8,-14.82 11.7,-15.6 95.14,-15.6 h 75.64 l -1.56,-5.98 c -10.4,-34.57 -14.56,-56.93 -14.56,-75.91 0,-37.17 13,-75.64 33.27,-97.74 13.79,-15.31 20.81,-17.65 35.11,-11.67 z" />
      <path
         style="stroke-width:0.1"
         inkscape:connector-curvature="0"
         id="path10"
         d="m 853.01,643.25 c 0.52,0.78 3.38,6.76 6.5,13.52 l 5.98,12.48 -0.78,143.49 -0.78,143.75 -8.32,16.12 -8.06,16.38 H 918.77 990 V 816.12 643.25 l -10.92,-0.26 c -36.39,-1.04 -126.85,-0.78 -126.07,0.26 z" />
    </g>
  </g>
</svg>
