<?xml version="1.0" encoding="UTF-8" standalone="no"?>
<!-- Svg Vector Icons : http://www.onlinewebfonts.com/icon -->

<svg
   xmlns:dc="http://purl.org/dc/elements/1.1/"
   xmlns:cc="http://creativecommons.org/ns#"
   xmlns:rdf="http://www.w3.org/1999/02/22-rdf-syntax-ns#"
   xmlns:svg="http://www.w3.org/2000/svg"
   xmlns="http://www.w3.org/2000/svg"
   xmlns:sodipodi="http://sodipodi.sourceforge.net/DTD/sodipodi-0.dtd"
   xmlns:inkscape="http://www.inkscape.org/namespaces/inkscape"
   version="1.1"
   x="0px"
   y="0px"
   viewBox="0 0 980.10004 912.34131"
   enable-background="new 0 0 1000 1000"
   xml:space="preserve"
   id="svg8"
   sodipodi:docname="publish_icon.svg"
   width="980.10004"
   height="912.34131"
   inkscape:version="0.92.4 (5da689c313, 2019-01-14)"><defs
   id="defs12" /><sodipodi:namedview
   pagecolor="#ffffff"
   bordercolor="#666666"
   borderopacity="1"
   objecttolerance="10"
   gridtolerance="10"
   guidetolerance="10"
   inkscape:pageopacity="0"
   inkscape:pageshadow="2"
   inkscape:window-width="1440"
   inkscape:window-height="897"
   id="namedview10"
   showgrid="false"
   fit-margin-top="0"
   fit-margin-left="0"
   fit-margin-right="0"
   fit-margin-bottom="0"
   inkscape:zoom="0.6675088"
   inkscape:cx="462.3609"
   inkscape:cy="409.99918"
   inkscape:window-x="-8"
   inkscape:window-y="-8"
   inkscape:window-maximized="1"
   inkscape:current-layer="svg8" />
<metadata
   id="metadata2"> Svg Vector Icons : http://www.onlinewebfonts.com/icon <rdf:RDF><cc:Work
     rdf:about=""><dc:format>image/svg+xml</dc:format><dc:type
       rdf:resource="http://purl.org/dc/dcmitype/StillImage" /><dc:title /></cc:Work></rdf:RDF></metadata>
<g
   id="g6"
   transform="translate(-9.8687204,-43.771424)"
   style="fill:#005522;stroke:none"><path
     d="m 989.9,72.1 c -2.2,25.3 -4.5,50.5 -6.8,75.8 -3.1,34 -6.2,67.9 -9.2,101.9 -3.5,39 -7.1,78 -10.6,117 -3.4,38 -6.8,76 -10.2,114 -3.5,38.6 -7,77.2 -10.5,115.8 -3,33.6 -6,67.1 -9,100.7 -3.5,38.8 -7,77.6 -10.5,116.4 -1.3,14.4 -2.6,28.7 -3.9,43.1 -2.1,21.6 -19.6,31.7 -39.4,22.4 -31.2,-14.6 -62.4,-29.3 -93.6,-44 -68.4,-32.3 -136.9,-64.5 -205.2,-96.9 -4.7,-2.2 -6.9,-1.4 -9.9,2.4 -53.9,67.6 -108,135.2 -162,202.7 -12,15 -29.2,17.1 -40.8,4.3 -3.7,-4.1 -6.5,-10.2 -7.1,-15.6 -4.1,-35.7 -7.5,-71.5 -11.1,-107.2 -3.9,-39 -7.9,-77.9 -11.7,-116.9 -3,-30.5 -6.2,-61 -8.9,-91.5 -0.5,-5.9 -2.4,-9.1 -8.2,-11.6 -97.6,-41.6 -195,-83.4 -292.5,-125.2 -9.8,-4.2 -17,-10.4 -18.6,-21.4 -1.9,-13.2 4.4,-23.1 18.2,-28.8 36.9,-15.4 73.8,-30.7 110.7,-46 270.1,-112 540.1,-224 810.2,-336 14.4,-6 24.5,-4.8 33.1,3.9 5.8,5.8 8,12.7 7.5,20.7 z m -56.6,53.2 c -0.5,-0.2 -0.9,-0.5 -1.4,-0.7 -152,168.9 -304,337.8 -456.3,507.1 2.6,1.4 4.5,2.5 6.5,3.4 34.1,15.8 67.5,33 101.9,48.4 93.8,42 186.3,87 279.2,130.8 2.3,1.1 4.6,2.1 7.8,3.5 20.8,-231.5 41.6,-462 62.3,-692.5 z M 102.7,454.7 c 2,1.1 3.1,1.8 4.4,2.4 83.3,35.7 166.6,71.4 249.8,107.2 3.8,1.6 5.9,0.5 8.6,-1.8 156.7,-136 313.4,-272 470.1,-408 1.5,-1.3 2.9,-2.7 4.3,-4.1 -0.2,-0.3 -0.5,-0.6 -0.7,-1 C 593.9,251 348.7,352.7 102.7,454.7 Z m 298.6,360.9 c 0.3,0 0.6,0 0.9,0 0.5,-1.7 1,-3.4 1.4,-5.1 12.6,-58 25.2,-116.1 38,-174.1 0.9,-4.3 3.3,-8.8 6.2,-12 C 580.1,477.1 712.5,330 845,182.8 c 1.1,-1.3 2.1,-2.7 3.2,-4 -2.1,0.6 -3.6,1.8 -5.1,3 C 733.3,277.1 623.5,372.4 513.7,467.7 469.8,505.8 426,543.8 382.2,582 c -1.8,1.6 -3.8,4.6 -3.6,6.8 2.1,24.5 4.7,48.9 7.2,73.3 3.9,39.4 7.9,78.7 11.8,118.1 1.2,11.8 2.4,23.6 3.7,35.4 z m 21.8,25.8 c 0.4,0.2 0.7,0.4 1.1,0.6 39.3,-49.1 78.6,-98.3 118.3,-147.9 -26.8,-13.4 -52.6,-26.2 -78.9,-39.4 -13.6,62.9 -27.1,124.8 -40.5,186.7 z"
     id="path4"
     inkscape:connector-curvature="0"
     style="fill:#005522;stroke:none" /></g>
</svg>